<?xml version="1.0" encoding="UTF-8" standalone="no"?>
<!DOCTYPE svg PUBLIC "-//W3C//DTD SVG 1.1//EN" "http://www.w3.org/Graphics/SVG/1.1/DTD/svg11.dtd">
<svg version="1.1" xmlns="http://www.w3.org/2000/svg" xmlns:xlink="http://www.w3.org/1999/xlink" preserveAspectRatio="xMidYMid meet" viewBox="0 0 190 390" width="190" height="390"><defs><path d="M184.84 72.06C184.84 72.06 184.84 72.06 184.84 72.06C184.84 232.26 184.84 321.26 184.84 339.06C184.84 339.06 184.84 339.06 184.84 339.06C78.04 339.06 18.71 339.06 6.84 339.06C6.84 339.06 6.84 339.06 6.84 339.06C6.84 178.86 6.84 89.86 6.84 72.06C6.84 72.06 6.84 72.06 6.84 72.06C113.64 72.06 172.97 72.06 184.84 72.06Z" id="ah69oQeUn"></path><path d="M146.2 5.8L148.03 6.05L149.84 6.4L151.62 6.84L153.38 7.37L155.11 7.99L156.81 8.69L158.49 9.48L160.13 10.34L161.74 11.28L163.32 12.29L164.86 13.37L166.37 14.52L167.83 15.73L169.26 17L170.65 18.34L171.99 19.72L173.29 21.17L174.55 22.66L175.75 24.19L176.91 25.78L178.02 27.4L179.08 29.06L180.08 30.76L181.04 32.49L181.93 34.24L182.77 36.03L183.55 37.84L184.27 39.67L184.93 41.52L185.52 43.39L186.05 45.26L186.52 47.15L186.91 49.04L187.24 50.94L187.5 52.84L187.69 54.73L187.8 56.62L187.84 58.51L187.84 338.23L187.8 340.1L187.69 341.95L187.5 343.78L187.25 345.58L186.92 347.37L186.52 349.13L186.06 350.86L185.53 352.56L184.93 354.24L184.28 355.88L183.56 357.49L182.78 359.07L181.94 360.61L181.04 362.12L180.09 363.59L179.09 365.01L178.03 366.4L176.92 367.75L175.76 369.05L174.55 370.3L173.3 371.51L172 372.67L170.65 373.78L169.27 374.83L167.84 375.84L166.37 376.79L164.86 377.68L163.32 378.52L161.74 379.3L160.13 380.02L158.49 380.68L156.81 381.27L155.11 381.8L153.38 382.27L151.62 382.66L149.84 382.99L148.03 383.25L146.2 383.44L144.35 383.55L142.48 383.59L47.97 383.59L46.1 383.55L44.25 383.44L42.42 383.25L40.62 382.99L38.83 382.66L37.07 382.27L35.34 381.8L33.64 381.27L31.96 380.68L30.32 380.02L28.71 379.3L27.13 378.52L25.59 377.68L24.08 376.79L22.62 375.84L21.19 374.83L19.8 373.77L18.46 372.66L17.16 371.5L15.9 370.3L14.7 369.04L13.54 367.74L12.43 366.4L11.37 365.01L10.37 363.58L9.42 362.12L8.52 360.61L7.68 359.07L6.9 357.49L6.19 355.88L5.53 354.23L4.93 352.56L4.4 350.86L3.94 349.12L3.54 347.36L3.22 345.58L2.96 343.77L2.77 341.94L2.66 340.09L2.62 338.23L2.62 58.51L2.66 56.62L2.77 54.73L2.96 52.84L3.22 50.94L3.54 49.04L3.94 47.15L4.4 45.26L4.93 43.39L5.53 41.52L6.19 39.67L6.9 37.84L7.68 36.03L8.52 34.24L9.42 32.49L10.37 30.76L11.37 29.06L12.43 27.4L13.54 25.78L14.7 24.19L15.9 22.66L17.16 21.17L18.46 19.72L19.8 18.34L21.19 17L22.62 15.73L24.08 14.52L25.59 13.37L27.13 12.29L28.71 11.28L30.32 10.34L31.96 9.48L33.64 8.69L35.34 7.99L37.07 7.37L38.83 6.84L40.62 6.4L42.42 6.05L44.25 5.8L46.1 5.64L47.97 5.59L142.48 5.59L144.35 5.64L146.2 5.8ZM23.32 334.16L169.65 334.16L151.82 307.35L41.14 307.35L23.32 334.16ZM32.74 295.87L32.74 230L10.8 227.24L10.8 310.5L32.74 295.87ZM157.96 293.36L179.89 307.99L179.89 227.24L157.96 230.09L157.96 293.36ZM32.74 216.2L32.74 180.1L10.8 122.14L10.8 213.4L32.74 216.2ZM157.96 216.19L179.89 213.37L179.89 119.62L157.96 177.57L157.96 216.19ZM89.15 81.52L84.5 81.7L79.96 81.95L75.55 82.27L71.26 82.65L67.11 83.08L63.1 83.56L59.23 84.07L55.52 84.62L51.97 85.19L48.59 85.78L45.37 86.38L42.34 86.99L39.49 87.59L36.83 88.18L34.37 88.76L32.11 89.32L30.07 89.85L28.24 90.34L26.63 90.78L25.26 91.18L24.12 91.52L23.22 91.8L22.57 92L22.17 92.13L22.04 92.17L39.9 160.57L150.55 160.57L150.82 159.52L151.1 158.44L151.39 157.33L151.7 156.18L152.01 154.99L152.32 153.76L152.65 152.51L152.99 151.21L153.34 149.88L153.69 148.52L154.06 147.12L154.43 145.69L154.81 144.22L155.21 142.72L155.61 141.18L156.02 139.61L156.43 138.01L156.86 136.37L157.3 134.7L157.74 133L158.2 131.26L158.66 129.49L159.13 127.69L159.61 125.85L160.09 123.98L160.59 122.08L161.09 120.15L161.6 118.19L162.13 116.19L162.65 114.16L163.19 112.1L163.74 110.01L164.29 107.89L164.85 105.74L165.42 103.55L166 101.34L166.58 99.09L167.17 96.82L167.78 94.51L168.38 92.17L162.77 90.45L157.18 88.89L151.61 87.51L146.07 86.28L140.58 85.21L135.13 84.29L129.73 83.51L124.39 82.86L119.11 82.34L113.9 81.94L108.77 81.66L103.72 81.48L98.77 81.4L93.91 81.41L89.15 81.52Z" id="etBMKFgHB"></path></defs><g><g><g><use xlink:href="#ah69oQeUn" opacity="1" fill="#ffffff" fill-opacity="1"></use><g><use xlink:href="#ah69oQeUn" opacity="1" fill-opacity="0" stroke="#000000" stroke-width="1.5" stroke-opacity="1"></use></g></g><g><use xlink:href="#etBMKFgHB" opacity="1" fill="#000000" fill-opacity="1"></use><g><use xlink:href="#etBMKFgHB" opacity="1" fill-opacity="0" stroke="#000000" stroke-width="1" stroke-opacity="0"></use></g></g></g></g></svg>